<mxfile host="Electron" agent="Mozilla/5.0 (Windows NT 10.0; Win64; x64) AppleWebKit/537.36 (KHTML, like Gecko) draw.io/28.1.2 Chrome/138.0.7204.243 Electron/37.4.0 Safari/537.36" version="28.1.2">
  <diagram name="Página-1" id="x1Cqhqtca8mA-7-1qcMO">
    <mxGraphModel dx="2301" dy="1521" grid="1" gridSize="10" guides="1" tooltips="1" connect="1" arrows="1" fold="1" page="0" pageScale="1" pageWidth="827" pageHeight="1169" math="0" shadow="0">
      <root>
        <mxCell id="0" />
        <mxCell id="1" parent="0" />
        <mxCell id="S4E9Fpp4D-xkpYuxk1sN-21" value="" style="edgeStyle=orthogonalEdgeStyle;rounded=0;sketch=1;hachureGap=4;jiggle=2;curveFitting=1;orthogonalLoop=1;jettySize=auto;html=1;fontFamily=Architects Daughter;fontSource=https%3A%2F%2Ffonts.googleapis.com%2Fcss%3Ffamily%3DArchitects%2BDaughter;" parent="1" source="wq0pJxAJRS6-PqvAkX3g-1" target="S4E9Fpp4D-xkpYuxk1sN-20" edge="1">
          <mxGeometry relative="1" as="geometry" />
        </mxCell>
        <mxCell id="S4E9Fpp4D-xkpYuxk1sN-42" value="&amp;nbsp;11 : 1&amp;nbsp;" style="edgeLabel;html=1;align=center;verticalAlign=middle;resizable=0;points=[];sketch=1;hachureGap=4;jiggle=2;curveFitting=1;fontFamily=Architects Daughter;fontSource=https%3A%2F%2Ffonts.googleapis.com%2Fcss%3Ffamily%3DArchitects%2BDaughter;" parent="S4E9Fpp4D-xkpYuxk1sN-21" vertex="1" connectable="0">
          <mxGeometry x="-0.0348" y="-2" relative="1" as="geometry">
            <mxPoint as="offset" />
          </mxGeometry>
        </mxCell>
        <mxCell id="wq0pJxAJRS6-PqvAkX3g-1" value="Pinacoteca" style="rounded=0;whiteSpace=wrap;html=1;sketch=1;hachureGap=4;jiggle=2;curveFitting=1;fontFamily=Architects Daughter;fontSource=https%3A%2F%2Ffonts.googleapis.com%2Fcss%3Ffamily%3DArchitects%2BDaughter;" parent="1" vertex="1">
          <mxGeometry y="400" width="120" height="60" as="geometry" />
        </mxCell>
        <mxCell id="wq0pJxAJRS6-PqvAkX3g-2" value="El Ministerio de Educación y Ciencia desea mantener información acerca de los &lt;font style=&quot;color: rgb(102, 0, 0);&quot;&gt;cuadros&lt;/font&gt;&lt;div&gt;&lt;font style=&quot;color: rgb(102, 0, 0);&quot;&gt;&lt;/font&gt;que se encuentran en las pinacotecas españolas y toda la información relacionada con ellos .&lt;/div&gt;&lt;div&gt;&lt;br&gt;De cada &lt;font style=&quot;color: rgb(0, 0, 204);&quot;&gt;Pinacoteca &lt;/font&gt;se desea saber el nombre (que se supone único), la ciudad en la que se&lt;br&gt;encuentra, la dirección y los metros cuadrados que tiene.&lt;br&gt;&lt;br&gt;&lt;/div&gt;&lt;div&gt;Cada Pinacoteca tiene una serie de &lt;font style=&quot;color: rgb(255, 0, 0);&quot;&gt;cuadros &lt;/font&gt;de los que se quiere guardar su código, nombre,&lt;br&gt;medidas, fechas en que fue pintado y técnica utilizada para pintarlo.&lt;/div&gt;&lt;div&gt;&lt;br&gt;Cada cuadro es pintado por un determinado&amp;nbsp;&lt;/div&gt;&lt;div&gt;&lt;font style=&quot;color: rgb(128, 255, 0);&quot;&gt;pintor&lt;/font&gt;(nombre, país, ciudad, fecha de nacimiento y fecha de fallecimiento). Un pintor puede tener a otro&amp;nbsp;&lt;/div&gt;&lt;div&gt;como maestro; a su vez, un maestro puede serlo de varios o de ninguno.&lt;/div&gt;&lt;div&gt;&lt;br&gt;Los pintores pueden pertenecer o no a una &lt;font style=&quot;color: rgb(127, 0, 255);&quot;&gt;escuela &lt;/font&gt;de la que se desea saber su nombre y en&lt;br&gt;qué país y fecha apareció.&lt;/div&gt;&lt;div&gt;&lt;br&gt;Los pintores pueden tener también uno o varios mecenas que los protegen( nombre, país y&lt;br&gt;ciudad de nacimiento, fecha de su fallecimiento) también querremos controlar la fecha en que&lt;br&gt;se inicia y termina el mecenazgo. A su vez un mismo mecenas puede serlo de varios pintores.&lt;br&gt;Se desea recoger la relación que existe entre un pintor y su mecenas.&lt;/div&gt;" style="text;whiteSpace=wrap;html=1;fontFamily=Architects Daughter;fontSource=https%3A%2F%2Ffonts.googleapis.com%2Fcss%3Ffamily%3DArchitects%2BDaughter;" parent="1" vertex="1">
          <mxGeometry x="340" y="-360" width="600" height="250" as="geometry" />
        </mxCell>
        <mxCell id="wq0pJxAJRS6-PqvAkX3g-4" value="nombre" style="ellipse;whiteSpace=wrap;html=1;sketch=1;hachureGap=4;jiggle=2;curveFitting=1;fontFamily=Architects Daughter;fontSource=https%3A%2F%2Ffonts.googleapis.com%2Fcss%3Ffamily%3DArchitects%2BDaughter;fillColor=#FF0000;fontColor=#ffffff;strokeColor=#6D1F00;fillStyle=zigzag;" parent="1" vertex="1">
          <mxGeometry x="-160" y="325" width="60" height="40" as="geometry" />
        </mxCell>
        <mxCell id="wq0pJxAJRS6-PqvAkX3g-5" value="" style="endArrow=none;html=1;rounded=0;sketch=1;hachureGap=4;jiggle=2;curveFitting=1;fontFamily=Architects Daughter;fontSource=https%3A%2F%2Ffonts.googleapis.com%2Fcss%3Ffamily%3DArchitects%2BDaughter;exitX=1.015;exitY=0.569;exitDx=0;exitDy=0;exitPerimeter=0;entryX=0;entryY=0.333;entryDx=0;entryDy=0;entryPerimeter=0;" parent="1" source="wq0pJxAJRS6-PqvAkX3g-4" target="wq0pJxAJRS6-PqvAkX3g-1" edge="1">
          <mxGeometry width="50" height="50" relative="1" as="geometry">
            <mxPoint x="-40" y="380" as="sourcePoint" />
            <mxPoint x="10" y="330" as="targetPoint" />
          </mxGeometry>
        </mxCell>
        <mxCell id="wq0pJxAJRS6-PqvAkX3g-6" value="Ciudad" style="ellipse;whiteSpace=wrap;html=1;sketch=1;hachureGap=4;jiggle=2;curveFitting=1;fontFamily=Architects Daughter;fontSource=https%3A%2F%2Ffonts.googleapis.com%2Fcss%3Ffamily%3DArchitects%2BDaughter;" parent="1" vertex="1">
          <mxGeometry x="-180" y="375" width="60" height="40" as="geometry" />
        </mxCell>
        <mxCell id="wq0pJxAJRS6-PqvAkX3g-7" value="" style="endArrow=none;html=1;rounded=0;sketch=1;hachureGap=4;jiggle=2;curveFitting=1;fontFamily=Architects Daughter;fontSource=https%3A%2F%2Ffonts.googleapis.com%2Fcss%3Ffamily%3DArchitects%2BDaughter;exitX=0.995;exitY=0.628;exitDx=0;exitDy=0;exitPerimeter=0;entryX=-0.005;entryY=0.35;entryDx=0;entryDy=0;entryPerimeter=0;" parent="1" source="wq0pJxAJRS6-PqvAkX3g-6" target="wq0pJxAJRS6-PqvAkX3g-1" edge="1">
          <mxGeometry width="50" height="50" relative="1" as="geometry">
            <mxPoint x="-50" y="410" as="sourcePoint" />
            <mxPoint x="10" y="390" as="targetPoint" />
          </mxGeometry>
        </mxCell>
        <mxCell id="wq0pJxAJRS6-PqvAkX3g-8" value="Direccion" style="ellipse;whiteSpace=wrap;html=1;sketch=1;hachureGap=4;jiggle=2;curveFitting=1;fontFamily=Architects Daughter;fontSource=https%3A%2F%2Ffonts.googleapis.com%2Fcss%3Ffamily%3DArchitects%2BDaughter;" parent="1" vertex="1">
          <mxGeometry x="-180" y="425" width="60" height="40" as="geometry" />
        </mxCell>
        <mxCell id="wq0pJxAJRS6-PqvAkX3g-9" value="" style="endArrow=none;html=1;rounded=0;sketch=1;hachureGap=4;jiggle=2;curveFitting=1;fontFamily=Architects Daughter;fontSource=https%3A%2F%2Ffonts.googleapis.com%2Fcss%3Ffamily%3DArchitects%2BDaughter;exitX=1.04;exitY=0.44;exitDx=0;exitDy=0;exitPerimeter=0;entryX=-0.007;entryY=0.327;entryDx=0;entryDy=0;entryPerimeter=0;" parent="1" source="wq0pJxAJRS6-PqvAkX3g-8" target="wq0pJxAJRS6-PqvAkX3g-1" edge="1">
          <mxGeometry width="50" height="50" relative="1" as="geometry">
            <mxPoint x="-60" y="454" as="sourcePoint" />
            <mxPoint x="29" y="430" as="targetPoint" />
          </mxGeometry>
        </mxCell>
        <mxCell id="wq0pJxAJRS6-PqvAkX3g-10" value="m2" style="ellipse;whiteSpace=wrap;html=1;sketch=1;hachureGap=4;jiggle=2;curveFitting=1;fontFamily=Architects Daughter;fontSource=https%3A%2F%2Ffonts.googleapis.com%2Fcss%3Ffamily%3DArchitects%2BDaughter;" parent="1" vertex="1">
          <mxGeometry x="-160" y="475" width="60" height="40" as="geometry" />
        </mxCell>
        <mxCell id="wq0pJxAJRS6-PqvAkX3g-11" value="" style="endArrow=none;html=1;rounded=0;sketch=1;hachureGap=4;jiggle=2;curveFitting=1;fontFamily=Architects Daughter;fontSource=https%3A%2F%2Ffonts.googleapis.com%2Fcss%3Ffamily%3DArchitects%2BDaughter;exitX=1.039;exitY=0.377;exitDx=0;exitDy=0;exitPerimeter=0;entryX=-0.004;entryY=0.347;entryDx=0;entryDy=0;entryPerimeter=0;" parent="1" source="wq0pJxAJRS6-PqvAkX3g-10" target="wq0pJxAJRS6-PqvAkX3g-1" edge="1">
          <mxGeometry width="50" height="50" relative="1" as="geometry">
            <mxPoint x="-40" y="528" as="sourcePoint" />
            <mxPoint x="37" y="460" as="targetPoint" />
          </mxGeometry>
        </mxCell>
        <mxCell id="S4E9Fpp4D-xkpYuxk1sN-24" value="" style="edgeStyle=orthogonalEdgeStyle;rounded=0;sketch=1;hachureGap=4;jiggle=2;curveFitting=1;orthogonalLoop=1;jettySize=auto;html=1;fontFamily=Architects Daughter;fontSource=https%3A%2F%2Ffonts.googleapis.com%2Fcss%3Ffamily%3DArchitects%2BDaughter;" parent="1" source="wq0pJxAJRS6-PqvAkX3g-12" target="S4E9Fpp4D-xkpYuxk1sN-23" edge="1">
          <mxGeometry relative="1" as="geometry" />
        </mxCell>
        <mxCell id="S4E9Fpp4D-xkpYuxk1sN-44" value="&amp;nbsp;1 : N&amp;nbsp;" style="edgeLabel;html=1;align=center;verticalAlign=middle;resizable=0;points=[];sketch=1;hachureGap=4;jiggle=2;curveFitting=1;fontFamily=Architects Daughter;fontSource=https%3A%2F%2Ffonts.googleapis.com%2Fcss%3Ffamily%3DArchitects%2BDaughter;" parent="S4E9Fpp4D-xkpYuxk1sN-24" vertex="1" connectable="0">
          <mxGeometry x="-0.0319" y="2" relative="1" as="geometry">
            <mxPoint as="offset" />
          </mxGeometry>
        </mxCell>
        <mxCell id="wq0pJxAJRS6-PqvAkX3g-12" value="Cuadro" style="rounded=0;whiteSpace=wrap;html=1;sketch=1;hachureGap=4;jiggle=2;curveFitting=1;fontFamily=Architects Daughter;fontSource=https%3A%2F%2Ffonts.googleapis.com%2Fcss%3Ffamily%3DArchitects%2BDaughter;gradientColor=none;shadow=0;glass=0;" parent="1" vertex="1">
          <mxGeometry x="590" y="400" width="120" height="60" as="geometry" />
        </mxCell>
        <mxCell id="wq0pJxAJRS6-PqvAkX3g-13" value="Codigo" style="ellipse;whiteSpace=wrap;html=1;sketch=1;hachureGap=4;jiggle=2;curveFitting=1;fontFamily=Architects Daughter;fontSource=https%3A%2F%2Ffonts.googleapis.com%2Fcss%3Ffamily%3DArchitects%2BDaughter;fillColor=#FF0000;fontColor=#ffffff;strokeColor=#6D1F00;fillStyle=zigzag;" parent="1" vertex="1">
          <mxGeometry x="470" y="250" width="60" height="40" as="geometry" />
        </mxCell>
        <mxCell id="wq0pJxAJRS6-PqvAkX3g-14" value="" style="endArrow=none;html=1;rounded=0;sketch=1;hachureGap=4;jiggle=2;curveFitting=1;fontFamily=Architects Daughter;fontSource=https%3A%2F%2Ffonts.googleapis.com%2Fcss%3Ffamily%3DArchitects%2BDaughter;exitX=0.419;exitY=1;exitDx=0;exitDy=0;exitPerimeter=0;entryX=0.5;entryY=0;entryDx=0;entryDy=0;" parent="1" source="wq0pJxAJRS6-PqvAkX3g-13" target="wq0pJxAJRS6-PqvAkX3g-12" edge="1">
          <mxGeometry width="50" height="50" relative="1" as="geometry">
            <mxPoint x="630" y="356.5" as="sourcePoint" />
            <mxPoint x="709" y="413.5" as="targetPoint" />
          </mxGeometry>
        </mxCell>
        <mxCell id="wq0pJxAJRS6-PqvAkX3g-15" value="Nombre" style="ellipse;whiteSpace=wrap;html=1;sketch=1;hachureGap=4;jiggle=2;curveFitting=1;fontFamily=Architects Daughter;fontSource=https%3A%2F%2Ffonts.googleapis.com%2Fcss%3Ffamily%3DArchitects%2BDaughter;" parent="1" vertex="1">
          <mxGeometry x="540" y="245" width="60" height="40" as="geometry" />
        </mxCell>
        <mxCell id="wq0pJxAJRS6-PqvAkX3g-16" value="" style="endArrow=none;html=1;rounded=0;sketch=1;hachureGap=4;jiggle=2;curveFitting=1;fontFamily=Architects Daughter;fontSource=https%3A%2F%2Ffonts.googleapis.com%2Fcss%3Ffamily%3DArchitects%2BDaughter;exitX=0.367;exitY=1.039;exitDx=0;exitDy=0;exitPerimeter=0;entryX=0.576;entryY=0.045;entryDx=0;entryDy=0;entryPerimeter=0;" parent="1" source="wq0pJxAJRS6-PqvAkX3g-15" target="wq0pJxAJRS6-PqvAkX3g-12" edge="1">
          <mxGeometry width="50" height="50" relative="1" as="geometry">
            <mxPoint x="818" y="455" as="sourcePoint" />
            <mxPoint x="760" y="543" as="targetPoint" />
          </mxGeometry>
        </mxCell>
        <mxCell id="wq0pJxAJRS6-PqvAkX3g-17" value="medidas&lt;div&gt;h * b&lt;/div&gt;" style="ellipse;whiteSpace=wrap;html=1;sketch=1;hachureGap=4;jiggle=2;curveFitting=1;fontFamily=Architects Daughter;fontSource=https%3A%2F%2Ffonts.googleapis.com%2Fcss%3Ffamily%3DArchitects%2BDaughter;" parent="1" vertex="1">
          <mxGeometry x="610" y="245" width="60" height="40" as="geometry" />
        </mxCell>
        <mxCell id="wq0pJxAJRS6-PqvAkX3g-18" value="" style="endArrow=none;html=1;rounded=0;sketch=1;hachureGap=4;jiggle=2;curveFitting=1;fontFamily=Architects Daughter;fontSource=https%3A%2F%2Ffonts.googleapis.com%2Fcss%3Ffamily%3DArchitects%2BDaughter;exitX=0.448;exitY=0.954;exitDx=0;exitDy=0;exitPerimeter=0;entryX=0.533;entryY=0.045;entryDx=0;entryDy=0;entryPerimeter=0;" parent="1" source="wq0pJxAJRS6-PqvAkX3g-17" target="wq0pJxAJRS6-PqvAkX3g-12" edge="1">
          <mxGeometry width="50" height="50" relative="1" as="geometry">
            <mxPoint x="839" y="495" as="sourcePoint" />
            <mxPoint x="760" y="530" as="targetPoint" />
          </mxGeometry>
        </mxCell>
        <mxCell id="S4E9Fpp4D-xkpYuxk1sN-3" value="compuesto" style="edgeLabel;html=1;align=center;verticalAlign=middle;resizable=0;points=[];sketch=1;hachureGap=4;jiggle=2;curveFitting=1;fontFamily=Architects Daughter;fontSource=https%3A%2F%2Ffonts.googleapis.com%2Fcss%3Ffamily%3DArchitects%2BDaughter;" parent="wq0pJxAJRS6-PqvAkX3g-18" vertex="1" connectable="0">
          <mxGeometry x="-0.5272" y="-2" relative="1" as="geometry">
            <mxPoint as="offset" />
          </mxGeometry>
        </mxCell>
        <mxCell id="wq0pJxAJRS6-PqvAkX3g-19" value="fecha" style="ellipse;whiteSpace=wrap;html=1;sketch=1;hachureGap=4;jiggle=2;curveFitting=1;fontFamily=Architects Daughter;fontSource=https%3A%2F%2Ffonts.googleapis.com%2Fcss%3Ffamily%3DArchitects%2BDaughter;" parent="1" vertex="1">
          <mxGeometry x="680" y="245" width="60" height="40" as="geometry" />
        </mxCell>
        <mxCell id="wq0pJxAJRS6-PqvAkX3g-21" value="tecnica" style="ellipse;whiteSpace=wrap;html=1;sketch=1;hachureGap=4;jiggle=2;curveFitting=1;fontFamily=Architects Daughter;fontSource=https%3A%2F%2Ffonts.googleapis.com%2Fcss%3Ffamily%3DArchitects%2BDaughter;" parent="1" vertex="1">
          <mxGeometry x="750" y="245" width="60" height="40" as="geometry" />
        </mxCell>
        <mxCell id="wq0pJxAJRS6-PqvAkX3g-22" value="" style="endArrow=none;html=1;rounded=0;sketch=1;hachureGap=4;jiggle=2;curveFitting=1;fontFamily=Architects Daughter;fontSource=https%3A%2F%2Ffonts.googleapis.com%2Fcss%3Ffamily%3DArchitects%2BDaughter;exitX=0.419;exitY=1.011;exitDx=0;exitDy=0;entryX=0.548;entryY=0.007;entryDx=0;entryDy=0;entryPerimeter=0;exitPerimeter=0;" parent="1" source="wq0pJxAJRS6-PqvAkX3g-21" target="wq0pJxAJRS6-PqvAkX3g-12" edge="1">
          <mxGeometry width="50" height="50" relative="1" as="geometry">
            <mxPoint x="847" y="510" as="sourcePoint" />
            <mxPoint x="760" y="495" as="targetPoint" />
            <Array as="points">
              <mxPoint x="750" y="305" />
            </Array>
          </mxGeometry>
        </mxCell>
        <mxCell id="S4E9Fpp4D-xkpYuxk1sN-28" value="" style="edgeStyle=orthogonalEdgeStyle;rounded=0;sketch=1;hachureGap=4;jiggle=2;curveFitting=1;orthogonalLoop=1;jettySize=auto;html=1;fontFamily=Architects Daughter;fontSource=https%3A%2F%2Ffonts.googleapis.com%2Fcss%3Ffamily%3DArchitects%2BDaughter;" parent="1" edge="1">
          <mxGeometry relative="1" as="geometry">
            <mxPoint x="1320" y="450" as="sourcePoint" />
            <mxPoint x="1430" y="510" as="targetPoint" />
          </mxGeometry>
        </mxCell>
        <mxCell id="S4E9Fpp4D-xkpYuxk1sN-48" value="0 : N" style="edgeLabel;html=1;align=center;verticalAlign=middle;resizable=0;points=[];sketch=1;hachureGap=4;jiggle=2;curveFitting=1;fontFamily=Architects Daughter;fontSource=https%3A%2F%2Ffonts.googleapis.com%2Fcss%3Ffamily%3DArchitects%2BDaughter;" parent="S4E9Fpp4D-xkpYuxk1sN-28" vertex="1" connectable="0">
          <mxGeometry x="0.5404" y="-2" relative="1" as="geometry">
            <mxPoint as="offset" />
          </mxGeometry>
        </mxCell>
        <mxCell id="S4E9Fpp4D-xkpYuxk1sN-33" value="" style="edgeStyle=orthogonalEdgeStyle;rounded=0;sketch=1;hachureGap=4;jiggle=2;curveFitting=1;orthogonalLoop=1;jettySize=auto;html=1;fontFamily=Architects Daughter;fontSource=https%3A%2F%2Ffonts.googleapis.com%2Fcss%3Ffamily%3DArchitects%2BDaughter;" parent="1" source="wq0pJxAJRS6-PqvAkX3g-24" target="S4E9Fpp4D-xkpYuxk1sN-32" edge="1">
          <mxGeometry relative="1" as="geometry" />
        </mxCell>
        <mxCell id="S4E9Fpp4D-xkpYuxk1sN-51" value="&amp;nbsp;1 : N&amp;nbsp;" style="edgeLabel;html=1;align=center;verticalAlign=middle;resizable=0;points=[];sketch=1;hachureGap=4;jiggle=2;curveFitting=1;fontFamily=Architects Daughter;fontSource=https%3A%2F%2Ffonts.googleapis.com%2Fcss%3Ffamily%3DArchitects%2BDaughter;" parent="S4E9Fpp4D-xkpYuxk1sN-33" vertex="1" connectable="0">
          <mxGeometry x="-0.0302" y="4" relative="1" as="geometry">
            <mxPoint as="offset" />
          </mxGeometry>
        </mxCell>
        <mxCell id="S4E9Fpp4D-xkpYuxk1sN-36" style="edgeStyle=orthogonalEdgeStyle;rounded=0;sketch=1;hachureGap=4;jiggle=2;curveFitting=1;orthogonalLoop=1;jettySize=auto;html=1;fontFamily=Architects Daughter;fontSource=https%3A%2F%2Ffonts.googleapis.com%2Fcss%3Ffamily%3DArchitects%2BDaughter;entryX=0.5;entryY=0;entryDx=0;entryDy=0;" parent="1" target="S4E9Fpp4D-xkpYuxk1sN-37" edge="1">
          <mxGeometry relative="1" as="geometry">
            <mxPoint x="1020" y="620" as="targetPoint" />
            <mxPoint x="1200" y="450" as="sourcePoint" />
          </mxGeometry>
        </mxCell>
        <mxCell id="S4E9Fpp4D-xkpYuxk1sN-54" value="&amp;nbsp;1 : N&amp;nbsp;" style="edgeLabel;html=1;align=center;verticalAlign=middle;resizable=0;points=[];sketch=1;hachureGap=4;jiggle=2;curveFitting=1;fontFamily=Architects Daughter;fontSource=https%3A%2F%2Ffonts.googleapis.com%2Fcss%3Ffamily%3DArchitects%2BDaughter;" parent="S4E9Fpp4D-xkpYuxk1sN-36" vertex="1" connectable="0">
          <mxGeometry x="-0.3178" y="-1" relative="1" as="geometry">
            <mxPoint as="offset" />
          </mxGeometry>
        </mxCell>
        <mxCell id="wq0pJxAJRS6-PqvAkX3g-24" value="Pintor" style="rounded=0;whiteSpace=wrap;html=1;sketch=1;hachureGap=4;jiggle=2;curveFitting=1;fontFamily=Architects Daughter;fontSource=https%3A%2F%2Ffonts.googleapis.com%2Fcss%3Ffamily%3DArchitects%2BDaughter;" parent="1" vertex="1">
          <mxGeometry x="1200" y="400" width="120" height="60" as="geometry" />
        </mxCell>
        <mxCell id="wq0pJxAJRS6-PqvAkX3g-25" value="DNI" style="ellipse;whiteSpace=wrap;html=1;sketch=1;hachureGap=4;jiggle=2;curveFitting=1;fontFamily=Architects Daughter;fontSource=https%3A%2F%2Ffonts.googleapis.com%2Fcss%3Ffamily%3DArchitects%2BDaughter;fillColor=#FF0000;fontColor=#ffffff;strokeColor=#6D1F00;fillStyle=zigzag;" parent="1" vertex="1">
          <mxGeometry x="1000" y="252.5" width="60" height="40" as="geometry" />
        </mxCell>
        <mxCell id="wq0pJxAJRS6-PqvAkX3g-26" value="Nombre" style="ellipse;whiteSpace=wrap;html=1;sketch=1;hachureGap=4;jiggle=2;curveFitting=1;fontFamily=Architects Daughter;fontSource=https%3A%2F%2Ffonts.googleapis.com%2Fcss%3Ffamily%3DArchitects%2BDaughter;" parent="1" vertex="1">
          <mxGeometry x="1070" y="247.5" width="60" height="40" as="geometry" />
        </mxCell>
        <mxCell id="wq0pJxAJRS6-PqvAkX3g-27" value="pais" style="ellipse;whiteSpace=wrap;html=1;sketch=1;hachureGap=4;jiggle=2;curveFitting=1;fontFamily=Architects Daughter;fontSource=https%3A%2F%2Ffonts.googleapis.com%2Fcss%3Ffamily%3DArchitects%2BDaughter;" parent="1" vertex="1">
          <mxGeometry x="1140" y="247.5" width="60" height="40" as="geometry" />
        </mxCell>
        <mxCell id="wq0pJxAJRS6-PqvAkX3g-28" value="fecha" style="ellipse;whiteSpace=wrap;html=1;sketch=1;hachureGap=4;jiggle=2;curveFitting=1;fontFamily=Architects Daughter;fontSource=https%3A%2F%2Ffonts.googleapis.com%2Fcss%3Ffamily%3DArchitects%2BDaughter;" parent="1" vertex="1">
          <mxGeometry x="1210" y="247.5" width="60" height="40" as="geometry" />
        </mxCell>
        <mxCell id="wq0pJxAJRS6-PqvAkX3g-29" value="f_nacimiento" style="ellipse;whiteSpace=wrap;html=1;sketch=1;hachureGap=4;jiggle=2;curveFitting=1;fontFamily=Architects Daughter;fontSource=https%3A%2F%2Ffonts.googleapis.com%2Fcss%3Ffamily%3DArchitects%2BDaughter;" parent="1" vertex="1">
          <mxGeometry x="1280" y="247.5" width="100" height="40" as="geometry" />
        </mxCell>
        <mxCell id="wq0pJxAJRS6-PqvAkX3g-30" value="f_fallecimientio" style="ellipse;whiteSpace=wrap;html=1;sketch=1;hachureGap=4;jiggle=2;curveFitting=1;fontFamily=Architects Daughter;fontSource=https%3A%2F%2Ffonts.googleapis.com%2Fcss%3Ffamily%3DArchitects%2BDaughter;" parent="1" vertex="1">
          <mxGeometry x="1390" y="247.5" width="100" height="40" as="geometry" />
        </mxCell>
        <mxCell id="wq0pJxAJRS6-PqvAkX3g-31" value="" style="endArrow=none;html=1;rounded=0;sketch=1;hachureGap=4;jiggle=2;curveFitting=1;fontFamily=Architects Daughter;fontSource=https%3A%2F%2Ffonts.googleapis.com%2Fcss%3Ffamily%3DArchitects%2BDaughter;exitX=0.5;exitY=1;exitDx=0;exitDy=0;entryX=0.5;entryY=0;entryDx=0;entryDy=0;" parent="1" source="wq0pJxAJRS6-PqvAkX3g-25" target="wq0pJxAJRS6-PqvAkX3g-24" edge="1">
          <mxGeometry width="50" height="50" relative="1" as="geometry">
            <mxPoint x="1039" y="292.5" as="sourcePoint" />
            <mxPoint x="1000" y="407.5" as="targetPoint" />
          </mxGeometry>
        </mxCell>
        <mxCell id="wq0pJxAJRS6-PqvAkX3g-32" value="" style="endArrow=none;html=1;rounded=0;sketch=1;hachureGap=4;jiggle=2;curveFitting=1;fontFamily=Architects Daughter;fontSource=https%3A%2F%2Ffonts.googleapis.com%2Fcss%3Ffamily%3DArchitects%2BDaughter;exitX=0.5;exitY=1;exitDx=0;exitDy=0;entryX=0.5;entryY=0;entryDx=0;entryDy=0;" parent="1" source="wq0pJxAJRS6-PqvAkX3g-26" target="wq0pJxAJRS6-PqvAkX3g-24" edge="1">
          <mxGeometry width="50" height="50" relative="1" as="geometry">
            <mxPoint x="1230" y="345" as="sourcePoint" />
            <mxPoint x="1460" y="442" as="targetPoint" />
          </mxGeometry>
        </mxCell>
        <mxCell id="wq0pJxAJRS6-PqvAkX3g-33" value="" style="endArrow=none;html=1;rounded=0;sketch=1;hachureGap=4;jiggle=2;curveFitting=1;fontFamily=Architects Daughter;fontSource=https%3A%2F%2Ffonts.googleapis.com%2Fcss%3Ffamily%3DArchitects%2BDaughter;exitX=0.653;exitY=1.008;exitDx=0;exitDy=0;entryX=0.5;entryY=0;entryDx=0;entryDy=0;exitPerimeter=0;" parent="1" source="wq0pJxAJRS6-PqvAkX3g-27" target="wq0pJxAJRS6-PqvAkX3g-24" edge="1">
          <mxGeometry width="50" height="50" relative="1" as="geometry">
            <mxPoint x="1230" y="315" as="sourcePoint" />
            <mxPoint x="1390" y="417" as="targetPoint" />
          </mxGeometry>
        </mxCell>
        <mxCell id="wq0pJxAJRS6-PqvAkX3g-34" value="" style="endArrow=none;html=1;rounded=0;sketch=1;hachureGap=4;jiggle=2;curveFitting=1;fontFamily=Architects Daughter;fontSource=https%3A%2F%2Ffonts.googleapis.com%2Fcss%3Ffamily%3DArchitects%2BDaughter;exitX=0.5;exitY=1;exitDx=0;exitDy=0;entryX=0.5;entryY=0;entryDx=0;entryDy=0;" parent="1" source="wq0pJxAJRS6-PqvAkX3g-28" target="wq0pJxAJRS6-PqvAkX3g-24" edge="1">
          <mxGeometry width="50" height="50" relative="1" as="geometry">
            <mxPoint x="1260" y="315" as="sourcePoint" />
            <mxPoint x="1341" y="417" as="targetPoint" />
          </mxGeometry>
        </mxCell>
        <mxCell id="wq0pJxAJRS6-PqvAkX3g-35" value="" style="endArrow=none;html=1;rounded=0;sketch=1;hachureGap=4;jiggle=2;curveFitting=1;fontFamily=Architects Daughter;fontSource=https%3A%2F%2Ffonts.googleapis.com%2Fcss%3Ffamily%3DArchitects%2BDaughter;exitX=0.442;exitY=1.071;exitDx=0;exitDy=0;entryX=0.5;entryY=0;entryDx=0;entryDy=0;exitPerimeter=0;" parent="1" source="wq0pJxAJRS6-PqvAkX3g-29" target="wq0pJxAJRS6-PqvAkX3g-24" edge="1">
          <mxGeometry width="50" height="50" relative="1" as="geometry">
            <mxPoint x="1300" y="335" as="sourcePoint" />
            <mxPoint x="1330" y="441" as="targetPoint" />
          </mxGeometry>
        </mxCell>
        <mxCell id="wq0pJxAJRS6-PqvAkX3g-39" value="Nombre" style="ellipse;whiteSpace=wrap;html=1;sketch=1;hachureGap=4;jiggle=2;curveFitting=1;fontFamily=Architects Daughter;fontSource=https%3A%2F%2Ffonts.googleapis.com%2Fcss%3Ffamily%3DArchitects%2BDaughter;fillColor=#a20025;fontColor=#ffffff;strokeColor=#6F0000;" parent="1" vertex="1">
          <mxGeometry x="1710" y="228.75" width="60" height="40" as="geometry" />
        </mxCell>
        <mxCell id="wq0pJxAJRS6-PqvAkX3g-40" value="pais" style="ellipse;whiteSpace=wrap;html=1;sketch=1;hachureGap=4;jiggle=2;curveFitting=1;fontFamily=Architects Daughter;fontSource=https%3A%2F%2Ffonts.googleapis.com%2Fcss%3Ffamily%3DArchitects%2BDaughter;" parent="1" vertex="1">
          <mxGeometry x="1780" y="228.75" width="60" height="40" as="geometry" />
        </mxCell>
        <mxCell id="wq0pJxAJRS6-PqvAkX3g-42" value="fecha" style="ellipse;whiteSpace=wrap;html=1;sketch=1;hachureGap=4;jiggle=2;curveFitting=1;fontFamily=Architects Daughter;fontSource=https%3A%2F%2Ffonts.googleapis.com%2Fcss%3Ffamily%3DArchitects%2BDaughter;" parent="1" vertex="1">
          <mxGeometry x="1860" y="228.75" width="80" height="40" as="geometry" />
        </mxCell>
        <mxCell id="wq0pJxAJRS6-PqvAkX3g-45" value="" style="endArrow=none;html=1;rounded=0;sketch=1;hachureGap=4;jiggle=2;curveFitting=1;fontFamily=Architects Daughter;fontSource=https%3A%2F%2Ffonts.googleapis.com%2Fcss%3Ffamily%3DArchitects%2BDaughter;exitX=0.5;exitY=1;exitDx=0;exitDy=0;entryX=0.444;entryY=0.038;entryDx=0;entryDy=0;entryPerimeter=0;" parent="1" source="wq0pJxAJRS6-PqvAkX3g-39" target="wq0pJxAJRS6-PqvAkX3g-48" edge="1">
          <mxGeometry width="50" height="50" relative="1" as="geometry">
            <mxPoint x="1780" y="316.25" as="sourcePoint" />
            <mxPoint x="1780" y="381.25" as="targetPoint" />
          </mxGeometry>
        </mxCell>
        <mxCell id="wq0pJxAJRS6-PqvAkX3g-46" value="" style="endArrow=none;html=1;rounded=0;sketch=1;hachureGap=4;jiggle=2;curveFitting=1;fontFamily=Architects Daughter;fontSource=https%3A%2F%2Ffonts.googleapis.com%2Fcss%3Ffamily%3DArchitects%2BDaughter;exitX=0.5;exitY=1;exitDx=0;exitDy=0;entryX=0.5;entryY=0;entryDx=0;entryDy=0;" parent="1" source="wq0pJxAJRS6-PqvAkX3g-40" target="wq0pJxAJRS6-PqvAkX3g-48" edge="1">
          <mxGeometry width="50" height="50" relative="1" as="geometry">
            <mxPoint x="1800" y="316.25" as="sourcePoint" />
            <mxPoint x="1780" y="381.25" as="targetPoint" />
          </mxGeometry>
        </mxCell>
        <mxCell id="wq0pJxAJRS6-PqvAkX3g-47" value="" style="endArrow=none;html=1;rounded=0;sketch=1;hachureGap=4;jiggle=2;curveFitting=1;fontFamily=Architects Daughter;fontSource=https%3A%2F%2Ffonts.googleapis.com%2Fcss%3Ffamily%3DArchitects%2BDaughter;entryX=0.569;entryY=-0.006;entryDx=0;entryDy=0;entryPerimeter=0;" parent="1" source="wq0pJxAJRS6-PqvAkX3g-42" target="wq0pJxAJRS6-PqvAkX3g-48" edge="1">
          <mxGeometry width="50" height="50" relative="1" as="geometry">
            <mxPoint x="1890" y="268.75" as="sourcePoint" />
            <mxPoint x="1803.157894736842" y="381.25" as="targetPoint" />
          </mxGeometry>
        </mxCell>
        <mxCell id="wq0pJxAJRS6-PqvAkX3g-48" value="escuela" style="whiteSpace=wrap;html=1;aspect=fixed;sketch=1;hachureGap=4;jiggle=2;curveFitting=1;fontFamily=Architects Daughter;fontSource=https%3A%2F%2Ffonts.googleapis.com%2Fcss%3Ffamily%3DArchitects%2BDaughter;gradientColor=none;dashed=1;" parent="1" vertex="1">
          <mxGeometry x="1760" y="380" width="80" height="80" as="geometry" />
        </mxCell>
        <mxCell id="S4E9Fpp4D-xkpYuxk1sN-1" value="" style="endArrow=classic;html=1;rounded=0;sketch=1;hachureGap=4;jiggle=2;curveFitting=1;fontFamily=Architects Daughter;fontSource=https%3A%2F%2Ffonts.googleapis.com%2Fcss%3Ffamily%3DArchitects%2BDaughter;exitX=0.5;exitY=0;exitDx=0;exitDy=0;entryX=0.403;entryY=1.071;entryDx=0;entryDy=0;entryPerimeter=0;" parent="1" source="wq0pJxAJRS6-PqvAkX3g-12" target="wq0pJxAJRS6-PqvAkX3g-19" edge="1">
          <mxGeometry width="50" height="50" relative="1" as="geometry">
            <mxPoint x="660" y="380" as="sourcePoint" />
            <mxPoint x="710" y="330" as="targetPoint" />
          </mxGeometry>
        </mxCell>
        <mxCell id="S4E9Fpp4D-xkpYuxk1sN-2" value="multivaluado" style="edgeLabel;html=1;align=center;verticalAlign=middle;resizable=0;points=[];sketch=1;hachureGap=4;jiggle=2;curveFitting=1;fontFamily=Architects Daughter;fontSource=https%3A%2F%2Ffonts.googleapis.com%2Fcss%3Ffamily%3DArchitects%2BDaughter;" parent="S4E9Fpp4D-xkpYuxk1sN-1" vertex="1" connectable="0">
          <mxGeometry x="0.2016" y="-4" relative="1" as="geometry">
            <mxPoint x="-6" as="offset" />
          </mxGeometry>
        </mxCell>
        <mxCell id="S4E9Fpp4D-xkpYuxk1sN-4" value="" style="endArrow=none;dashed=1;html=1;dashPattern=1 3;strokeWidth=2;rounded=0;sketch=1;hachureGap=4;jiggle=2;curveFitting=1;fontFamily=Architects Daughter;fontSource=https%3A%2F%2Ffonts.googleapis.com%2Fcss%3Ffamily%3DArchitects%2BDaughter;exitX=0.5;exitY=0;exitDx=0;exitDy=0;entryX=0;entryY=1;entryDx=0;entryDy=0;" parent="1" source="wq0pJxAJRS6-PqvAkX3g-24" target="wq0pJxAJRS6-PqvAkX3g-30" edge="1">
          <mxGeometry width="50" height="50" relative="1" as="geometry">
            <mxPoint x="1340" y="375" as="sourcePoint" />
            <mxPoint x="1390" y="325" as="targetPoint" />
          </mxGeometry>
        </mxCell>
        <mxCell id="S4E9Fpp4D-xkpYuxk1sN-5" value="opcional" style="edgeLabel;html=1;align=center;verticalAlign=middle;resizable=0;points=[];sketch=1;hachureGap=4;jiggle=2;curveFitting=1;fontFamily=Architects Daughter;fontSource=https%3A%2F%2Ffonts.googleapis.com%2Fcss%3Ffamily%3DArchitects%2BDaughter;" parent="S4E9Fpp4D-xkpYuxk1sN-4" vertex="1" connectable="0">
          <mxGeometry x="0.0455" y="-1" relative="1" as="geometry">
            <mxPoint as="offset" />
          </mxGeometry>
        </mxCell>
        <mxCell id="S4E9Fpp4D-xkpYuxk1sN-7" value="mecenas" style="rounded=0;whiteSpace=wrap;html=1;sketch=1;hachureGap=4;jiggle=2;curveFitting=1;fontFamily=Architects Daughter;fontSource=https%3A%2F%2Ffonts.googleapis.com%2Fcss%3Ffamily%3DArchitects%2BDaughter;" parent="1" vertex="1">
          <mxGeometry x="830" y="770" width="120" height="60" as="geometry" />
        </mxCell>
        <mxCell id="S4E9Fpp4D-xkpYuxk1sN-9" value="nombre" style="ellipse;whiteSpace=wrap;html=1;sketch=1;hachureGap=4;jiggle=2;curveFitting=1;fontFamily=Architects Daughter;fontSource=https%3A%2F%2Ffonts.googleapis.com%2Fcss%3Ffamily%3DArchitects%2BDaughter;fillColor=#FF0000;fontColor=#ffffff;strokeColor=#6D1F00;fillStyle=zigzag;" parent="1" vertex="1">
          <mxGeometry x="710" y="700" width="60" height="40" as="geometry" />
        </mxCell>
        <mxCell id="S4E9Fpp4D-xkpYuxk1sN-10" value="Pais" style="ellipse;whiteSpace=wrap;html=1;sketch=1;hachureGap=4;jiggle=2;curveFitting=1;fontFamily=Architects Daughter;fontSource=https%3A%2F%2Ffonts.googleapis.com%2Fcss%3Ffamily%3DArchitects%2BDaughter;" parent="1" vertex="1">
          <mxGeometry x="690" y="750" width="60" height="40" as="geometry" />
        </mxCell>
        <mxCell id="S4E9Fpp4D-xkpYuxk1sN-11" value="edad_nac" style="ellipse;whiteSpace=wrap;html=1;sketch=1;hachureGap=4;jiggle=2;curveFitting=1;fontFamily=Architects Daughter;fontSource=https%3A%2F%2Ffonts.googleapis.com%2Fcss%3Ffamily%3DArchitects%2BDaughter;" parent="1" vertex="1">
          <mxGeometry x="690" y="800" width="60" height="40" as="geometry" />
        </mxCell>
        <mxCell id="S4E9Fpp4D-xkpYuxk1sN-12" value="f_defuncion" style="ellipse;whiteSpace=wrap;html=1;sketch=1;hachureGap=4;jiggle=2;curveFitting=1;fontFamily=Architects Daughter;fontSource=https%3A%2F%2Ffonts.googleapis.com%2Fcss%3Ffamily%3DArchitects%2BDaughter;" parent="1" vertex="1">
          <mxGeometry x="670" y="850" width="100" height="40" as="geometry" />
        </mxCell>
        <mxCell id="S4E9Fpp4D-xkpYuxk1sN-13" value="" style="endArrow=none;html=1;rounded=0;sketch=1;hachureGap=4;jiggle=2;curveFitting=1;fontFamily=Architects Daughter;fontSource=https%3A%2F%2Ffonts.googleapis.com%2Fcss%3Ffamily%3DArchitects%2BDaughter;entryX=1.015;entryY=0.627;entryDx=0;entryDy=0;entryPerimeter=0;exitX=0;exitY=0.333;exitDx=0;exitDy=0;exitPerimeter=0;" parent="1" source="S4E9Fpp4D-xkpYuxk1sN-7" target="S4E9Fpp4D-xkpYuxk1sN-9" edge="1">
          <mxGeometry width="50" height="50" relative="1" as="geometry">
            <mxPoint x="780" y="780" as="sourcePoint" />
            <mxPoint x="830" y="730" as="targetPoint" />
          </mxGeometry>
        </mxCell>
        <mxCell id="S4E9Fpp4D-xkpYuxk1sN-14" value="" style="endArrow=none;html=1;rounded=0;sketch=1;hachureGap=4;jiggle=2;curveFitting=1;fontFamily=Architects Daughter;fontSource=https%3A%2F%2Ffonts.googleapis.com%2Fcss%3Ffamily%3DArchitects%2BDaughter;entryX=1;entryY=0.5;entryDx=0;entryDy=0;exitX=-0.02;exitY=0.331;exitDx=0;exitDy=0;exitPerimeter=0;" parent="1" source="S4E9Fpp4D-xkpYuxk1sN-7" target="S4E9Fpp4D-xkpYuxk1sN-10" edge="1">
          <mxGeometry width="50" height="50" relative="1" as="geometry">
            <mxPoint x="819" y="885" as="sourcePoint" />
            <mxPoint x="770" y="790" as="targetPoint" />
          </mxGeometry>
        </mxCell>
        <mxCell id="S4E9Fpp4D-xkpYuxk1sN-15" value="" style="endArrow=none;html=1;rounded=0;sketch=1;hachureGap=4;jiggle=2;curveFitting=1;fontFamily=Architects Daughter;fontSource=https%3A%2F%2Ffonts.googleapis.com%2Fcss%3Ffamily%3DArchitects%2BDaughter;entryX=1;entryY=0.5;entryDx=0;entryDy=0;exitX=-0.016;exitY=0.426;exitDx=0;exitDy=0;exitPerimeter=0;" parent="1" source="S4E9Fpp4D-xkpYuxk1sN-7" target="S4E9Fpp4D-xkpYuxk1sN-11" edge="1">
          <mxGeometry width="50" height="50" relative="1" as="geometry">
            <mxPoint x="828" y="860" as="sourcePoint" />
            <mxPoint x="760" y="810" as="targetPoint" />
          </mxGeometry>
        </mxCell>
        <mxCell id="S4E9Fpp4D-xkpYuxk1sN-17" value="" style="endArrow=none;dashed=1;html=1;dashPattern=1 3;strokeWidth=2;rounded=0;sketch=1;hachureGap=4;jiggle=2;curveFitting=1;fontFamily=Architects Daughter;fontSource=https%3A%2F%2Ffonts.googleapis.com%2Fcss%3Ffamily%3DArchitects%2BDaughter;exitX=0.985;exitY=0.377;exitDx=0;exitDy=0;exitPerimeter=0;entryX=0.14;entryY=1.023;entryDx=0;entryDy=0;entryPerimeter=0;" parent="1" source="S4E9Fpp4D-xkpYuxk1sN-12" target="S4E9Fpp4D-xkpYuxk1sN-7" edge="1">
          <mxGeometry width="50" height="50" relative="1" as="geometry">
            <mxPoint x="820" y="930" as="sourcePoint" />
            <mxPoint x="830" y="800" as="targetPoint" />
            <Array as="points">
              <mxPoint x="800" y="880" />
              <mxPoint x="840" y="840" />
            </Array>
          </mxGeometry>
        </mxCell>
        <mxCell id="S4E9Fpp4D-xkpYuxk1sN-18" value="&lt;font style=&quot;font-size: 9px;&quot;&gt;opcional&lt;/font&gt;" style="edgeLabel;html=1;align=center;verticalAlign=middle;resizable=0;points=[];sketch=1;hachureGap=4;jiggle=2;curveFitting=1;fontFamily=Architects Daughter;fontSource=https%3A%2F%2Ffonts.googleapis.com%2Fcss%3Ffamily%3DArchitects%2BDaughter;" parent="S4E9Fpp4D-xkpYuxk1sN-17" vertex="1" connectable="0">
          <mxGeometry x="0.1759" y="3" relative="1" as="geometry">
            <mxPoint as="offset" />
          </mxGeometry>
        </mxCell>
        <mxCell id="S4E9Fpp4D-xkpYuxk1sN-22" style="edgeStyle=orthogonalEdgeStyle;rounded=0;sketch=1;hachureGap=4;jiggle=2;curveFitting=1;orthogonalLoop=1;jettySize=auto;html=1;entryX=0;entryY=0.5;entryDx=0;entryDy=0;fontFamily=Architects Daughter;fontSource=https%3A%2F%2Ffonts.googleapis.com%2Fcss%3Ffamily%3DArchitects%2BDaughter;exitX=1;exitY=0.5;exitDx=0;exitDy=0;" parent="1" source="S4E9Fpp4D-xkpYuxk1sN-20" target="wq0pJxAJRS6-PqvAkX3g-12" edge="1">
          <mxGeometry relative="1" as="geometry">
            <mxPoint x="410" y="430" as="sourcePoint" />
          </mxGeometry>
        </mxCell>
        <mxCell id="S4E9Fpp4D-xkpYuxk1sN-40" value="1 : N&amp;nbsp;" style="edgeLabel;html=1;align=center;verticalAlign=middle;resizable=0;points=[];sketch=1;hachureGap=4;jiggle=2;curveFitting=1;fontFamily=Architects Daughter;fontSource=https%3A%2F%2Ffonts.googleapis.com%2Fcss%3Ffamily%3DArchitects%2BDaughter;" parent="S4E9Fpp4D-xkpYuxk1sN-22" vertex="1" connectable="0">
          <mxGeometry x="0.0842" y="1" relative="1" as="geometry">
            <mxPoint as="offset" />
          </mxGeometry>
        </mxCell>
        <mxCell id="S4E9Fpp4D-xkpYuxk1sN-20" value="tiene" style="rhombus;whiteSpace=wrap;html=1;fontFamily=Architects Daughter;rounded=0;sketch=1;hachureGap=4;jiggle=2;curveFitting=1;fontSource=https%3A%2F%2Ffonts.googleapis.com%2Fcss%3Ffamily%3DArchitects%2BDaughter;" parent="1" vertex="1">
          <mxGeometry x="320" y="390" width="80" height="80" as="geometry" />
        </mxCell>
        <mxCell id="S4E9Fpp4D-xkpYuxk1sN-25" style="edgeStyle=orthogonalEdgeStyle;rounded=0;sketch=1;hachureGap=4;jiggle=2;curveFitting=1;orthogonalLoop=1;jettySize=auto;html=1;entryX=0;entryY=0.5;entryDx=0;entryDy=0;fontFamily=Architects Daughter;fontSource=https%3A%2F%2Ffonts.googleapis.com%2Fcss%3Ffamily%3DArchitects%2BDaughter;exitX=0.675;exitY=0.238;exitDx=0;exitDy=0;exitPerimeter=0;" parent="1" source="S4E9Fpp4D-xkpYuxk1sN-23" edge="1">
          <mxGeometry relative="1" as="geometry">
            <mxPoint x="980" y="415" as="sourcePoint" />
            <mxPoint x="1200" y="415" as="targetPoint" />
          </mxGeometry>
        </mxCell>
        <mxCell id="S4E9Fpp4D-xkpYuxk1sN-43" value="&amp;nbsp;1 : 1&amp;nbsp;" style="edgeLabel;html=1;align=center;verticalAlign=middle;resizable=0;points=[];sketch=1;hachureGap=4;jiggle=2;curveFitting=1;fontFamily=Architects Daughter;fontSource=https%3A%2F%2Ffonts.googleapis.com%2Fcss%3Ffamily%3DArchitects%2BDaughter;" parent="S4E9Fpp4D-xkpYuxk1sN-25" vertex="1" connectable="0">
          <mxGeometry x="0.4778" y="-2" relative="1" as="geometry">
            <mxPoint as="offset" />
          </mxGeometry>
        </mxCell>
        <mxCell id="S4E9Fpp4D-xkpYuxk1sN-23" value="pinta" style="rhombus;whiteSpace=wrap;html=1;fontFamily=Architects Daughter;rounded=0;sketch=1;hachureGap=4;jiggle=2;curveFitting=1;fontSource=https%3A%2F%2Ffonts.googleapis.com%2Fcss%3Ffamily%3DArchitects%2BDaughter;gradientColor=none;" parent="1" vertex="1">
          <mxGeometry x="900" y="390" width="80" height="80" as="geometry" />
        </mxCell>
        <mxCell id="S4E9Fpp4D-xkpYuxk1sN-29" style="edgeStyle=orthogonalEdgeStyle;rounded=0;sketch=1;hachureGap=4;jiggle=2;curveFitting=1;orthogonalLoop=1;jettySize=auto;html=1;entryX=0.5;entryY=1;entryDx=0;entryDy=0;fontFamily=Architects Daughter;fontSource=https%3A%2F%2Ffonts.googleapis.com%2Fcss%3Ffamily%3DArchitects%2BDaughter;" parent="1" source="S4E9Fpp4D-xkpYuxk1sN-27" target="wq0pJxAJRS6-PqvAkX3g-24" edge="1">
          <mxGeometry relative="1" as="geometry" />
        </mxCell>
        <mxCell id="S4E9Fpp4D-xkpYuxk1sN-47" value="0 : 1" style="edgeLabel;html=1;align=center;verticalAlign=middle;resizable=0;points=[];sketch=1;hachureGap=4;jiggle=2;curveFitting=1;fontFamily=Architects Daughter;fontSource=https%3A%2F%2Ffonts.googleapis.com%2Fcss%3Ffamily%3DArchitects%2BDaughter;" parent="S4E9Fpp4D-xkpYuxk1sN-29" vertex="1" connectable="0">
          <mxGeometry x="0.6859" relative="1" as="geometry">
            <mxPoint as="offset" />
          </mxGeometry>
        </mxCell>
        <mxCell id="S4E9Fpp4D-xkpYuxk1sN-27" value="enseña" style="rhombus;whiteSpace=wrap;html=1;fontFamily=Architects Daughter;rounded=0;sketch=1;hachureGap=4;jiggle=2;curveFitting=1;fontSource=https%3A%2F%2Ffonts.googleapis.com%2Fcss%3Ffamily%3DArchitects%2BDaughter;" parent="1" vertex="1">
          <mxGeometry x="1390" y="510" width="80" height="80" as="geometry" />
        </mxCell>
        <mxCell id="S4E9Fpp4D-xkpYuxk1sN-32" value="pertenece" style="rhombus;whiteSpace=wrap;html=1;fontFamily=Architects Daughter;rounded=0;sketch=1;hachureGap=4;jiggle=2;curveFitting=1;fontSource=https%3A%2F%2Ffonts.googleapis.com%2Fcss%3Ffamily%3DArchitects%2BDaughter;" parent="1" vertex="1">
          <mxGeometry x="1530" y="390" width="80" height="80" as="geometry" />
        </mxCell>
        <mxCell id="S4E9Fpp4D-xkpYuxk1sN-34" style="edgeStyle=orthogonalEdgeStyle;rounded=0;sketch=1;hachureGap=4;jiggle=2;curveFitting=1;orthogonalLoop=1;jettySize=auto;html=1;entryX=0;entryY=0.622;entryDx=0;entryDy=0;entryPerimeter=0;fontFamily=Architects Daughter;fontSource=https%3A%2F%2Ffonts.googleapis.com%2Fcss%3Ffamily%3DArchitects%2BDaughter;" parent="1" source="S4E9Fpp4D-xkpYuxk1sN-32" target="wq0pJxAJRS6-PqvAkX3g-48" edge="1">
          <mxGeometry relative="1" as="geometry" />
        </mxCell>
        <mxCell id="S4E9Fpp4D-xkpYuxk1sN-50" value="&amp;nbsp;1 : 0&amp;nbsp;" style="edgeLabel;html=1;align=center;verticalAlign=middle;resizable=0;points=[];sketch=1;hachureGap=4;jiggle=2;curveFitting=1;fontFamily=Architects Daughter;fontSource=https%3A%2F%2Ffonts.googleapis.com%2Fcss%3Ffamily%3DArchitects%2BDaughter;" parent="S4E9Fpp4D-xkpYuxk1sN-34" vertex="1" connectable="0">
          <mxGeometry x="0.0995" y="-1" relative="1" as="geometry">
            <mxPoint as="offset" />
          </mxGeometry>
        </mxCell>
        <mxCell id="S4E9Fpp4D-xkpYuxk1sN-35" style="edgeStyle=orthogonalEdgeStyle;rounded=0;sketch=1;hachureGap=4;jiggle=2;curveFitting=1;orthogonalLoop=1;jettySize=auto;html=1;exitX=0.5;exitY=1;exitDx=0;exitDy=0;fontFamily=Architects Daughter;fontSource=https%3A%2F%2Ffonts.googleapis.com%2Fcss%3Ffamily%3DArchitects%2BDaughter;" parent="1" source="wq0pJxAJRS6-PqvAkX3g-42" target="wq0pJxAJRS6-PqvAkX3g-42" edge="1">
          <mxGeometry relative="1" as="geometry" />
        </mxCell>
        <mxCell id="S4E9Fpp4D-xkpYuxk1sN-38" style="edgeStyle=orthogonalEdgeStyle;rounded=0;sketch=1;hachureGap=4;jiggle=2;curveFitting=1;orthogonalLoop=1;jettySize=auto;html=1;exitX=0.5;exitY=1;exitDx=0;exitDy=0;entryX=1;entryY=0.5;entryDx=0;entryDy=0;fontFamily=Architects Daughter;fontSource=https%3A%2F%2Ffonts.googleapis.com%2Fcss%3Ffamily%3DArchitects%2BDaughter;" parent="1" source="S4E9Fpp4D-xkpYuxk1sN-37" target="S4E9Fpp4D-xkpYuxk1sN-7" edge="1">
          <mxGeometry relative="1" as="geometry" />
        </mxCell>
        <mxCell id="S4E9Fpp4D-xkpYuxk1sN-53" value="0 : N" style="edgeLabel;html=1;align=center;verticalAlign=middle;resizable=0;points=[];sketch=1;hachureGap=4;jiggle=2;curveFitting=1;fontFamily=Architects Daughter;fontSource=https%3A%2F%2Ffonts.googleapis.com%2Fcss%3Ffamily%3DArchitects%2BDaughter;" parent="S4E9Fpp4D-xkpYuxk1sN-38" vertex="1" connectable="0">
          <mxGeometry x="-0.385" y="-1" relative="1" as="geometry">
            <mxPoint as="offset" />
          </mxGeometry>
        </mxCell>
        <mxCell id="S4E9Fpp4D-xkpYuxk1sN-37" value="protege" style="rhombus;whiteSpace=wrap;html=1;sketch=1;hachureGap=4;jiggle=2;curveFitting=1;fontFamily=Architects Daughter;fontSource=https%3A%2F%2Ffonts.googleapis.com%2Fcss%3Ffamily%3DArchitects%2BDaughter;" parent="1" vertex="1">
          <mxGeometry x="980" y="580" width="80" height="80" as="geometry" />
        </mxCell>
        <mxCell id="S4E9Fpp4D-xkpYuxk1sN-45" value="1 : N" style="text;html=1;align=center;verticalAlign=middle;resizable=0;points=[];autosize=1;strokeColor=none;fillColor=none;fontFamily=Architects Daughter;fontSource=https%3A%2F%2Ffonts.googleapis.com%2Fcss%3Ffamily%3DArchitects%2BDaughter;" parent="1" vertex="1">
          <mxGeometry x="920" y="358" width="40" height="30" as="geometry" />
        </mxCell>
        <mxCell id="S4E9Fpp4D-xkpYuxk1sN-46" value="1 : N" style="text;html=1;align=center;verticalAlign=middle;resizable=0;points=[];autosize=1;strokeColor=none;fillColor=none;fontFamily=Architects Daughter;fontSource=https%3A%2F%2Ffonts.googleapis.com%2Fcss%3Ffamily%3DArchitects%2BDaughter;" parent="1" vertex="1">
          <mxGeometry x="340" y="358" width="40" height="30" as="geometry" />
        </mxCell>
        <mxCell id="S4E9Fpp4D-xkpYuxk1sN-49" value="1 : N" style="text;html=1;align=center;verticalAlign=middle;resizable=0;points=[];autosize=1;strokeColor=none;fillColor=none;fontFamily=Architects Daughter;fontSource=https%3A%2F%2Ffonts.googleapis.com%2Fcss%3Ffamily%3DArchitects%2BDaughter;" parent="1" vertex="1">
          <mxGeometry x="1470" y="535" width="40" height="30" as="geometry" />
        </mxCell>
        <mxCell id="S4E9Fpp4D-xkpYuxk1sN-52" value="1 : N" style="text;html=1;align=center;verticalAlign=middle;resizable=0;points=[];autosize=1;strokeColor=none;fillColor=none;fontFamily=Architects Daughter;fontSource=https%3A%2F%2Ffonts.googleapis.com%2Fcss%3Ffamily%3DArchitects%2BDaughter;" parent="1" vertex="1">
          <mxGeometry x="1550" y="365" width="40" height="30" as="geometry" />
        </mxCell>
        <mxCell id="S4E9Fpp4D-xkpYuxk1sN-55" value="N : N" style="text;html=1;align=center;verticalAlign=middle;resizable=0;points=[];autosize=1;strokeColor=none;fillColor=none;fontFamily=Architects Daughter;fontSource=https%3A%2F%2Ffonts.googleapis.com%2Fcss%3Ffamily%3DArchitects%2BDaughter;" parent="1" vertex="1">
          <mxGeometry x="1055" y="608" width="50" height="30" as="geometry" />
        </mxCell>
        <mxCell id="S4E9Fpp4D-xkpYuxk1sN-60" value="f_inicio" style="ellipse;whiteSpace=wrap;html=1;sketch=1;hachureGap=4;jiggle=2;curveFitting=1;fontFamily=Architects Daughter;fontSource=https%3A%2F%2Ffonts.googleapis.com%2Fcss%3Ffamily%3DArchitects%2BDaughter;" parent="1" vertex="1">
          <mxGeometry x="830" y="580" width="90" height="35" as="geometry" />
        </mxCell>
        <mxCell id="S4E9Fpp4D-xkpYuxk1sN-62" value="" style="endArrow=none;html=1;rounded=0;sketch=1;hachureGap=4;jiggle=2;curveFitting=1;fontFamily=Architects Daughter;fontSource=https%3A%2F%2Ffonts.googleapis.com%2Fcss%3Ffamily%3DArchitects%2BDaughter;entryX=0;entryY=0.5;entryDx=0;entryDy=0;exitX=1;exitY=0.5;exitDx=0;exitDy=0;" parent="1" source="S4E9Fpp4D-xkpYuxk1sN-60" target="S4E9Fpp4D-xkpYuxk1sN-37" edge="1">
          <mxGeometry width="50" height="50" relative="1" as="geometry">
            <mxPoint x="900" y="680" as="sourcePoint" />
            <mxPoint x="950" y="630" as="targetPoint" />
          </mxGeometry>
        </mxCell>
        <mxCell id="S4E9Fpp4D-xkpYuxk1sN-63" value="f_fin" style="ellipse;whiteSpace=wrap;html=1;sketch=1;hachureGap=4;jiggle=2;curveFitting=1;fontFamily=Architects Daughter;fontSource=https%3A%2F%2Ffonts.googleapis.com%2Fcss%3Ffamily%3DArchitects%2BDaughter;" parent="1" vertex="1">
          <mxGeometry x="830" y="615" width="90" height="35" as="geometry" />
        </mxCell>
        <mxCell id="S4E9Fpp4D-xkpYuxk1sN-64" value="" style="endArrow=none;html=1;rounded=0;sketch=1;hachureGap=4;jiggle=2;curveFitting=1;fontFamily=Architects Daughter;fontSource=https%3A%2F%2Ffonts.googleapis.com%2Fcss%3Ffamily%3DArchitects%2BDaughter;entryX=0.044;entryY=0.556;entryDx=0;entryDy=0;exitX=1;exitY=0.5;exitDx=0;exitDy=0;entryPerimeter=0;" parent="1" source="S4E9Fpp4D-xkpYuxk1sN-63" target="S4E9Fpp4D-xkpYuxk1sN-37" edge="1">
          <mxGeometry width="50" height="50" relative="1" as="geometry">
            <mxPoint x="970" y="650" as="sourcePoint" />
            <mxPoint x="1030" y="672" as="targetPoint" />
          </mxGeometry>
        </mxCell>
      </root>
    </mxGraphModel>
  </diagram>
</mxfile>
